PathFileType	4	(X/Y/Z)	C:/Users/beibeiliu/ov580/test_trc\sequence.14_training_dense_right.trc
DataRate	CameraRate	NumFrames	NumMarkers	Units	OrigDataRate	OrigDataStartFrame	OrigNumFrames
120	120	24	19	mm	120	1	383
Frame#	Time	ThumbCMC			ThumbMCP			ThumbIP			ThumbTip			IndexMCP			IndexPIP			IndexTip			MiddleMCP			MiddlePIP			MiddleTip			RingMCP			RingPIP			RingTip			PinkyMCP			PinkyPIP			PinkyTip			BackHand1			BackHand2			BackHand3	
		X0	Y0	Z0	X1	Y1	Z1	X2	Y2	Z2	X3	Y3	Z3	X4	Y4	Z4	X5	Y5	Z5	X6	Y6	Z6	X7	Y7	Z7	X8	Y8	Z8	X9	Y9	Z9	X10	Y10	Z10	X11	Y11	Z11	X12	Y12	Z12	X13	Y13	Z13	X14	Y14	Z14	X15	Y15	Z15	X16	Y16	Z16	X17	Y17	Z17	X18	Y18	Z18	
0	0	161.95	-20.8589	8.59558	138.413	-22.7563	-8.1298	126.397	-23.8252	-28.5371	115.038	-23.7848	-41.9824	166.514	-22.9898	-60.988	162.903	-29.5954	-85.4204	156.638	-31.5324	-103.22	191.327	-26.9808	-66.8663	187.514	-31.4091	-88.6347	192.038	-34.7649	-113.513	208.615	-32.0168	-59.4391	211.764	-35.0359	-80.8586	217.797	-36.3255	-101.313	225.244	-37.9276	-44.9192	234.177	-40.3683	-59.6181	244.108	-38.4899	-71.555	206.663	-17.7081	-17.8907	206.519	-8.71079	8.22132	181.978	-7.57868	-5.24807	
1	0.00833333	160.941	-21.1203	2.77547	143.959	-25.2241	-9.02203	129.658	-24.737	-31.6467	114.762	-24.6395	-40.25	167.923	-24.5422	-61.7074	162.267	-28.5209	-85.8486	161.46	-33.6903	-107.831	189.209	-27.4217	-66.6486	188.581	-32.6741	-93.5437	193.307	-35.3632	-116.508	207.882	-32.73	-62.705	216.709	-37.1349	-77.7736	217.622	-36.6596	-101.364	225.517	-39.0967	-44.9374	235.915	-40.8252	-61.2554	242.781	-38.4386	-77.349	207.615	-19.2787	-18.4331	207.799	-10.8411	7.14848	182.679	-7.80951	-9.43163	
2	0.0166667	161.547	-21.2895	7.05904	145.522	-25.6778	-12.6682	130.137	-24.7493	-31.7007	119.187	-24.8663	-44.1579	170.303	-25.2363	-63.0662	163.697	-28.7204	-82.9974	164.149	-33.5641	-105.592	191.335	-29.1331	-72.4017	190.349	-33.3147	-93.7324	195.791	-36.6289	-118.439	212.643	-33.8801	-61.3198	214.877	-37.1093	-78.8363	220.339	-38.3341	-100.671	227.911	-38.7184	-46.6157	236.447	-42.6062	-59.3126	243.346	-39.0482	-73.5827	210.319	-20.2111	-20.0889	212.464	-11.65	3.72388	186.569	-8.22469	-8.87806	
3	0.025	162.071	-20.9306	3.3771	144.784	-24.8702	-10.314	132.139	-25.2078	-33.8871	118.211	-25.6948	-45.2392	170.345	-25.0578	-61.8258	165.657	-30.414	-87.8067	167.132	-34.8571	-107.849	197.53	-29.9003	-70.5226	196.654	-34.9301	-94.7655	200.447	-38.1173	-116.467	213.691	-33.1906	-63.2929	219.378	-37.1104	-82.6449	221.674	-39.1931	-101.65	229.452	-39.2902	-45.3171	236.515	-42.8809	-57.8235	248.486	-39.0517	-76.0034	209.631	-18.3755	-20.6795	212.247	-13.2541	6.47679	184.413	-9.41825	-12.8517	
4	0.0333333	162.104	-19.9964	1.60713	146.853	-25.364	-11.949	132.916	-25.3846	-32.6303	119.745	-26.3559	-46.37	173.341	-25.6387	-65.962	167.312	-29.4334	-85.0393	168.999	-35.6343	-107.146	194.507	-28.6086	-67.4936	196.178	-35.5305	-94.6422	199.156	-37.1635	-114.968	213.879	-34.1225	-58.2219	218.253	-37.2779	-83.5065	224.009	-38.3611	-102.786	231.547	-40.3026	-41.9658	240.662	-41.8977	-61.3134	250.508	-40.4527	-75.8864	211.272	-18.9776	-17.2686	216.171	-11.6786	6.23553	190.742	-9.79202	-9.16181	
5	0.0416667	163.538	-21.1531	0.430108	149.554	-26.6856	-13.0778	136.109	-27.5057	-29.1001	122.555	-27.3348	-43.6604	171.671	-25.7885	-64.299	172.736	-30.9305	-87.6642	164.52	-34.5122	-110.17	198.213	-28.9927	-67.6027	199.972	-34.3098	-91.2265	199.95	-37.0647	-113.53	214.703	-33.5429	-61.8447	222.207	-36.9561	-79.7052	222.545	-39.0754	-99.2757	235.303	-40.3191	-44.7469	239.077	-41.8831	-58.4886	254.161	-38.7824	-75.2157	216.374	-20.7865	-19.6414	214.133	-12.8589	3.63026	191.289	-10.4288	-13.0471	
6	0.05	166.598	-22.1574	1.22667	147.277	-24.6814	-11.2671	132.358	-24.8972	-30.987	119.974	-26.5447	-41.9708	173.899	-25.6597	-64.7847	168.628	-29.7039	-87.9958	171.113	-34.7287	-109.154	196.263	-27.7924	-69.2635	198.174	-33.7232	-91.6745	201.316	-36.8859	-115.749	219.556	-33.4094	-61.5477	223.911	-37.1989	-80.0527	226.757	-38.881	-98.8583	232.858	-39.3078	-43.5283	244.682	-42.8458	-59.3874	255.234	-39.191	-76.0367	213.729	-17.9693	-17.5342	212.586	-11.8266	5.56874	189.68	-10.2103	-12.4848	
7	0.0583333	166.805	-21.7464	5.59949	149.085	-24.8387	-11.6468	135.172	-25.2645	-30.0802	121.359	-25.0501	-43.6129	173.318	-24.2734	-65.1083	173.084	-30.52	-89.5798	170.183	-33.3732	-111.608	199.577	-28.9892	-70.8195	199.703	-33.9394	-93.1713	205.782	-36.821	-119.516	221.42	-34.4255	-62.2044	226.385	-37.5745	-81.1737	225.372	-37.8021	-99.2679	234.249	-38.5487	-42.3208	241.795	-41.5438	-57.5445	255.82	-37.4988	-72.7201	214.683	-17.0961	-22.0837	214.79	-10.5381	7.22332	188.829	-8.35089	-9.64428	
8	0.0666667	170.716	-22.1102	0.641786	150.612	-24.8204	-11.2556	138.991	-25.5141	-28.7566	123.789	-25.3616	-41.3791	176.849	-25.1127	-66.0932	173.426	-28.8182	-87.7334	173.262	-32.6865	-106.63	201.947	-27.7469	-69.2695	202.486	-33.7989	-95.0862	204.376	-35.5662	-113.497	219.465	-32.0545	-58.4417	224.479	-36.6956	-78.6594	229.77	-37.5985	-101.589	237.562	-38.0762	-43.2195	243.532	-40.9941	-60.2042	256.872	-39.389	-70.1614	220.429	-17.3542	-19.9777	219.504	-11.716	4.5963	193.843	-9.34469	-8.43739	
9	0.075	169.79	-20.3163	5.64194	151.466	-25.0493	-11.9315	139.184	-24.6085	-28.6974	124.869	-23.7402	-43.2311	180.524	-24.415	-65.7943	173.494	-28.6783	-83.9839	173.535	-33.8871	-109.201	200.522	-26.5743	-71.6905	203.719	-32.9959	-94.5389	205.325	-34.3503	-114.192	221.987	-31.8673	-57.9428	225.041	-35.943	-78.4206	229.423	-37.2829	-99.7981	241.051	-38.3794	-42.0658	246.092	-40.3831	-58.4213	255.034	-36.16	-72.5818	216.369	-18.6935	-16.9703	220.431	-12.5476	4.0597	197.213	-7.58378	-7.64752	
10	0.0833333	173.229	-20.9443	2.47387	150.842	-23.3167	-13.7796	137.321	-24.7125	-30.3599	126.368	-24.8444	-44.9978	179.525	-23.6279	-61.8986	174.578	-29.1881	-87.8765	177.946	-33.0917	-106.706	204.039	-28.0903	-70.2585	207.391	-32.4807	-90.2172	209	-35.6211	-113.987	225.019	-32.4372	-61.0045	227.733	-35.5552	-78.5762	231.121	-37.053	-99.0609	242.54	-39.2332	-41.613	247.025	-40.4874	-58.0686	258.836	-35.9981	-74.6734	217.677	-18.0783	-15.1262	220.093	-10.1307	7.97901	196.666	-9.87148	-6.88986	
11	0.0916667	172.335	-21.5891	6.96184	156.919	-25.2989	-12.5762	139.799	-24.4688	-34.227	125.64	-23.5197	-46.3101	178.71	-24.5137	-64.121	178.093	-29.2864	-87.0827	176.567	-34.0106	-109.194	202.278	-27.5232	-67.0242	206.856	-32.8341	-91.6049	207.104	-34.7626	-114.414	225.022	-32.1457	-60.0592	229.494	-36.5191	-77.841	231.373	-37.7358	-100.908	240.191	-38.0275	-46.096	250.419	-40.4165	-59.6705	260.804	-38.1917	-72.2523	220.898	-18.8418	-19.8994	220.123	-11.3871	6.71735	193.555	-9.81501	-10.9194	
12	0.1	170.756	-20.6857	6.29507	156.215	-25.1238	-12.435	142.378	-25.8568	-29.1433	129.104	-24.4812	-42.7006	178.885	-23.6406	-65.9394	179.286	-29.5336	-86.3232	174.606	-33.07	-104.463	203.036	-27.819	-71.4819	209.317	-34.787	-93.1852	210.811	-36.7251	-113.924	224.539	-32.7497	-60.9323	232.022	-37.1729	-80.2664	230.795	-36.8065	-100.005	243.232	-38.2522	-43.8606	248.763	-40.7274	-58.4911	258.894	-38.3506	-73.091	219.988	-16.6578	-18.3521	220.394	-12.5266	6.5616	194.937	-7.38886	-7.07365	
13	0.108333	175.606	-22.4285	3.7639	155.857	-26.057	-12.4812	144.597	-26.0267	-30.7079	130.28	-26.1439	-41.2048	183.733	-25.4863	-62.4427	181.615	-30.0539	-85.4492	177.246	-34.048	-109.413	208.756	-28.4623	-66.1178	209.667	-34.007	-88.7101	212.687	-37.2481	-115.749	228.44	-33.9498	-60.6178	226.985	-36.803	-78.3204	233.307	-38.0025	-95.4859	244.237	-39.5202	-39.4057	252.151	-42.6124	-58.0061	257.566	-39.2139	-70.1659	220.455	-17.9617	-14.5376	221.722	-12.6411	6.03105	195.318	-7.73092	-6.47651	
14	0.116667	174.388	-22.5486	4.15802	153.945	-25.5643	-9.61527	144.127	-26.0521	-29.8182	128.798	-24.3175	-45.6798	182.068	-25.1568	-65.7044	182.341	-31.7695	-87.2595	177.194	-34.7329	-106.266	205	-29.444	-67.6892	210.577	-34.9033	-87.4415	211.814	-37.6827	-114.113	229.607	-34.5798	-58.2306	231.882	-37.115	-80.4594	234.13	-38.0751	-100.03	243.546	-40.4865	-39.6317	253.654	-42.8024	-52.5123	262.675	-38.958	-70.9251	224.627	-19.7921	-15.2839	220.712	-11.9622	8.34902	196.993	-10.8781	-9.49103	
15	0.125	173.769	-21.6884	3.9437	157.218	-26.8813	-10.9459	143.972	-26.324	-28.6967	132.05	-26.2243	-42.1996	182.53	-25.6347	-64.3542	180.275	-32.2044	-86.8746	177.041	-34.9771	-106.3	207.411	-30.6468	-69.3013	207.386	-35.4692	-91.4499	210.561	-37.1041	-112.257	226.342	-33.8674	-59.5255	235.262	-37.7809	-74.9363	237.801	-39.2509	-97.4948	245.524	-40.4459	-39.5944	253.954	-43.5034	-53.0768	262.728	-39.3367	-69.1083	226.959	-18.8209	-13.9194	225.651	-12.2964	6.72426	198.337	-10.7932	-5.715	
16	0.133333	178.307	-23.8321	5.29378	157.375	-26.5459	-11.4443	147.462	-26.7814	-32.7471	132.441	-25.9009	-44.0238	184.26	-26.0479	-64.6102	180.595	-31.4119	-84.9892	182.365	-36.0172	-108.29	208.084	-29.2957	-65.6663	209.331	-35.6043	-87.9198	217.062	-39.0522	-110.309	227.596	-34.5158	-54.3557	234.316	-39.0812	-77.914	237.667	-39.7142	-98.2857	246.323	-40.519	-36.5784	254.586	-43.9861	-56.3374	264.047	-39.8669	-70.7463	226.187	-18.4892	-12.9338	226.403	-11.8663	10.8596	200.602	-11.4184	-4.23342	
17	0.141667	177.098	-21.8584	3.89288	161.301	-27.3164	-14.6094	146.311	-26.4763	-28.6122	134.616	-25.5603	-40.7024	188.534	-26.1099	-65.0285	185.786	-31.2303	-85.4662	183.915	-35.7823	-105.552	212.713	-31.1817	-68.2657	213.837	-36.609	-90.9841	214.959	-38.2583	-112.88	228.873	-34.4454	-58.0275	238.097	-40.1112	-79.3547	237.29	-40.6257	-96.5168	247.341	-40.4985	-41.471	256.892	-44.2117	-56.3617	268.068	-40.1477	-66.1739	229.064	-18.8072	-13.3452	227.455	-11.8916	12.5764	199.282	-10.6965	-4.76988	
18	0.15	176.722	-20.5342	7.73102	161.361	-25.5506	-13.8969	146.673	-26.0381	-27.8524	133.551	-24.4586	-41.7349	187.138	-23.9695	-62.5626	186.952	-28.9755	-83.0403	187.481	-33.3133	-108.307	211.784	-28.5898	-69.7844	216.419	-34.7704	-87.012	221.805	-38.3212	-113.438	234.693	-34.6575	-54.2773	237.067	-38.0295	-75.2717	239.779	-40.3121	-97.7699	247.887	-40.7554	-38.5044	257.322	-44.2279	-57.7841	266.98	-42.9788	-66.6964	226.822	-18.6201	-15.5081	225.906	-14.5707	10.2543	204.351	-9.82063	-5.66411	
19	0.158333	179.709	-19.438	3.87073	165.57	-25.4199	-15.6287	152.238	-26.7543	-29.1367	136.563	-25.9241	-43.8598	190.81	-21.0023	-60.8453	188.151	-25.0151	-84.5813	184.713	-28.5397	-105.255	218.985	-27.2418	-69.4467	218.6	-32.2985	-90.6562	221.504	-34.9493	-115.617	236.098	-33.6392	-60.1445	236.687	-36.3584	-79.4751	241.261	-39.3324	-101.513	247.686	-41.2801	-40.2069	257.293	-45.2101	-56.7188	266.083	-41.4457	-74.7093	229.797	-18.29	-17.759	231.681	-14.3815	7.37458	208.514	-8.84939	-3.6257	
20	0.166667	185.227	-19.5206	1.82672	167.596	-25.6869	-12.2972	150.082	-26.7217	-30.2631	143.324	-29.2693	-47.9997	197.912	-15.6532	-62.836	190.007	-18.1165	-84.8158	187.454	-23.6139	-106.343	217.346	-20.0272	-65.9004	219.847	-25.1449	-88.5724	218.813	-28.7798	-117.579	236.41	-29.5748	-60.5284	237.945	-33.4508	-82.1162	243.528	-37.5627	-98.6097	253.764	-41.3439	-42.6671	258.538	-45.6905	-57.461	267.629	-45.5671	-75.3367	238.339	-18.2332	-12.1772	237.508	-14.3322	11.1736	208.197	-6.37302	-7.7546	
21	0.175	185.848	-16.8847	1.69894	171.355	-27.2091	-18.2872	154.395	-28.8192	-34.5134	146.348	-33.1485	-48.7682	199.257	-7.88282	-64.6058	193.972	-9.59742	-82.4481	190.188	-17.8826	-109.383	220.938	-14.411	-67.6774	217.355	-17.8953	-92.5672	219.85	-23.0923	-116.449	240.554	-25.6234	-61.3772	239.788	-29.2994	-79.1755	241.912	-32.9376	-100.335	254.306	-38.2036	-47.4172	255.528	-42.4605	-63.6564	261.409	-43.9402	-81.3591	236.407	-14.2626	-11.0678	238.594	-15.0335	12.2304	216.355	-4.27581	-2.15193	
22	0.183333	189.4	-15.2958	1.96101	175.372	-26.8491	-16.7304	161.973	-28.2981	-40.2634	153.181	-33.4528	-56.4204	201.866	0.153219	-62.4398	197.38	-5.22896	-84.5474	194.224	-12.4615	-105.468	225.388	-9.46448	-63.0725	222.424	-12.4512	-89.7694	218.583	-18.4124	-117.521	241.917	-21.3256	-57.0643	239.181	-22.9278	-81.0004	239.375	-29.1167	-102.434	251.149	-32.9562	-49.4603	255.173	-39.9096	-65.0808	253.481	-39.5002	-86.6784	240.39	-11.7675	-14.5504	239.421	-15.3848	15.264	218.821	-2.12063	-3.29041	
23	0.191667	189.937	-11.8215	4.53399	177.114	-23.1423	-19.2448	168.687	-26.2234	-38.4967	156.007	-30.236	-58.3307	208.332	4.81145	-57.0004	198.654	2.35078	-82.8487	196.141	-8.46611	-102.062	224.354	-2.25283	-61.5619	222.111	-6.95373	-89.2279	216.945	-12.8281	-112.954	240.521	-17.8929	-59.2137	239.179	-21.6918	-85.0143	229.705	-25.5203	-105.655	251.679	-31.6612	-50.1046	249.811	-34.0852	-65.1646	246.427	-41.664	-87.6156	244.147	-13.4637	-14.3026	244.452	-15.0912	15.6443	222.739	0.317256	2.75448	
